<mxfile host="Electron" modified="2023-08-11T01:33:26.612Z" agent="Mozilla/5.0 (Windows NT 10.0; Win64; x64) AppleWebKit/537.36 (KHTML, like Gecko) draw.io/21.6.5 Chrome/114.0.5735.243 Electron/25.3.1 Safari/537.36" etag="1r8X-KPar1L7ABf50Com" version="21.6.5" type="device">
  <diagram name="第 1 页" id="pqISzRCg5tY0zE7_DFzk">
    <mxGraphModel dx="1863" dy="614" grid="1" gridSize="10" guides="1" tooltips="1" connect="1" arrows="1" fold="1" page="1" pageScale="1" pageWidth="827" pageHeight="1169" math="0" shadow="0">
      <root>
        <mxCell id="0" />
        <mxCell id="1" parent="0" />
        <mxCell id="i1jCB0c7qs5RmjSvvi3u-2" style="edgeStyle=orthogonalEdgeStyle;rounded=0;orthogonalLoop=1;jettySize=auto;html=1;exitX=1;exitY=0.5;exitDx=0;exitDy=0;sketch=1;curveFitting=1;jiggle=2;" edge="1" parent="1" source="uEjw20dRS_9Wrid4qU01-1" target="i1jCB0c7qs5RmjSvvi3u-1">
          <mxGeometry relative="1" as="geometry" />
        </mxCell>
        <mxCell id="i1jCB0c7qs5RmjSvvi3u-4" style="edgeStyle=orthogonalEdgeStyle;rounded=0;sketch=1;hachureGap=4;jiggle=2;curveFitting=1;orthogonalLoop=1;jettySize=auto;html=1;exitX=0.5;exitY=1;exitDx=0;exitDy=0;entryX=0.5;entryY=0;entryDx=0;entryDy=0;fontFamily=Architects Daughter;fontSource=https%3A%2F%2Ffonts.googleapis.com%2Fcss%3Ffamily%3DArchitects%2BDaughter;fontSize=16;" edge="1" parent="1" source="uEjw20dRS_9Wrid4qU01-1" target="i1jCB0c7qs5RmjSvvi3u-3">
          <mxGeometry relative="1" as="geometry" />
        </mxCell>
        <mxCell id="uEjw20dRS_9Wrid4qU01-1" value="AutowireCapableBeanFactory" style="rounded=1;whiteSpace=wrap;html=1;hachureGap=4;fontFamily=Architects Daughter;fontSource=https%3A%2F%2Ffonts.googleapis.com%2Fcss%3Ffamily%3DArchitects%2BDaughter;fontSize=20;fillColor=#d5e8d4;strokeColor=#82b366;sketch=1;curveFitting=1;jiggle=2;" parent="1" vertex="1">
          <mxGeometry x="70" y="320" width="320" height="80" as="geometry" />
        </mxCell>
        <mxCell id="uEjw20dRS_9Wrid4qU01-2" value="&lt;span style=&quot;color: rgb(209, 213, 219); font-family: Söhne, ui-sans-serif, system-ui, -apple-system, &amp;quot;Segoe UI&amp;quot;, Roboto, Ubuntu, Cantarell, &amp;quot;Noto Sans&amp;quot;, sans-serif, &amp;quot;Helvetica Neue&amp;quot;, Arial, &amp;quot;Apple Color Emoji&amp;quot;, &amp;quot;Segoe UI Emoji&amp;quot;, &amp;quot;Segoe UI Symbol&amp;quot;, &amp;quot;Noto Color Emoji&amp;quot;; font-size: 16px; font-style: normal; font-variant-ligatures: normal; font-variant-caps: normal; font-weight: 400; letter-spacing: normal; orphans: 2; text-align: start; text-indent: 0px; text-transform: none; widows: 2; word-spacing: 0px; -webkit-text-stroke-width: 0px; background-color: rgb(68, 70, 84); text-decoration-thickness: initial; text-decoration-style: initial; text-decoration-color: initial; float: none; display: inline !important;&quot;&gt;允许在编程方式下进行依赖注入，将依赖注入到 Spring 管理的 bean 中。&lt;/span&gt;" style="text;whiteSpace=wrap;html=1;fontSize=20;fontFamily=Architects Daughter;sketch=1;curveFitting=1;jiggle=2;" parent="1" vertex="1">
          <mxGeometry x="-60" y="250" width="560" height="70" as="geometry" />
        </mxCell>
        <mxCell id="i1jCB0c7qs5RmjSvvi3u-1" value="&lt;div&gt;&lt;p&gt;&lt;font style=&quot;font-size: 14px;&quot;&gt;AutowireCapableBeanFactory定义了5种装配策略：&lt;/font&gt;&lt;/p&gt;&lt;font size=&quot;3&quot;&gt;&lt;br&gt;&lt;/font&gt;&lt;ol&gt;&lt;font size=&quot;3&quot;&gt;&lt;br&gt;&lt;/font&gt;&lt;li&gt;&lt;font size=&quot;3&quot;&gt;不自动注入：AUTOWIRE_NO&lt;/font&gt;&lt;/li&gt;&lt;font size=&quot;3&quot;&gt;&lt;br&gt;&lt;/font&gt;&lt;li&gt;&lt;font size=&quot;3&quot;&gt;使用BeanName策略注入：AUTOWIRE_BY_NAME&lt;/font&gt;&lt;/li&gt;&lt;font size=&quot;3&quot;&gt;&lt;br&gt;&lt;/font&gt;&lt;li&gt;&lt;font size=&quot;3&quot;&gt;使用类型装配策略：AUTOWIRE_BY_TYPE&lt;/font&gt;&lt;/li&gt;&lt;font size=&quot;3&quot;&gt;&lt;br&gt;&lt;/font&gt;&lt;li&gt;&lt;font size=&quot;3&quot;&gt;使用构造器装配策略：AUTOWIRE_CONSTRUCTOR&lt;/font&gt;&lt;/li&gt;&lt;font size=&quot;3&quot;&gt;&lt;br&gt;&lt;/font&gt;&lt;li&gt;&lt;font size=&quot;3&quot;&gt;自动装配策略：AUTOWIRE_AUTODETECT&lt;/font&gt;&lt;/li&gt;&lt;/ol&gt;&lt;/div&gt;&lt;font size=&quot;3&quot;&gt;&lt;br&gt;&lt;/font&gt;" style="text;whiteSpace=wrap;html=1;sketch=1;curveFitting=1;jiggle=2;fillColor=#cdeb8b;strokeColor=#36393d;" vertex="1" parent="1">
          <mxGeometry x="530" y="195" width="440" height="330" as="geometry" />
        </mxCell>
        <mxCell id="i1jCB0c7qs5RmjSvvi3u-3" value="&lt;span style=&quot;color: rgb(64, 64, 64); font-family: -apple-system, BlinkMacSystemFont, &amp;quot;Apple Color Emoji&amp;quot;, &amp;quot;Segoe UI Emoji&amp;quot;, &amp;quot;Segoe UI Symbol&amp;quot;, &amp;quot;Segoe UI&amp;quot;, &amp;quot;PingFang SC&amp;quot;, &amp;quot;Hiragino Sans GB&amp;quot;, &amp;quot;Microsoft YaHei&amp;quot;, &amp;quot;Helvetica Neue&amp;quot;, Helvetica, Arial, sans-serif; font-size: 16px; font-style: normal; font-variant-ligatures: normal; font-variant-caps: normal; font-weight: 400; letter-spacing: normal; orphans: 2; text-align: start; text-indent: 0px; text-transform: none; widows: 2; word-spacing: 0px; -webkit-text-stroke-width: 0px; background-color: rgb(255, 255, 255); text-decoration-thickness: initial; text-decoration-style: initial; text-decoration-color: initial; float: none; display: inline !important;&quot;&gt;AutowireCapableBeanFactory是在BeanFactory的基础上实现对已存在实例的管理。可以使用这个接口集成其他框架，捆绑并填充并不由Spring管理生命周期并已存在的实例。&lt;/span&gt;" style="text;whiteSpace=wrap;html=1;fontSize=20;fontFamily=Architects Daughter;fillColor=#ffcc99;strokeColor=#36393d;" vertex="1" parent="1">
          <mxGeometry x="-50" y="485" width="560" height="100" as="geometry" />
        </mxCell>
      </root>
    </mxGraphModel>
  </diagram>
</mxfile>
